<svg xmlns="http://www.w3.org/2000/svg" width="268" height="262" viewBox="0 0 268 262">
    <g fill="none" fill-rule="evenodd">
        <path fill="#000" d="M8.5 0v7.5H16v1H8.5V16h-1V8.499L0 8.5v-1l7.5-.001V0h1zM50 0v7.5h7.5v1H50V16h-1V8.499l-7.5.001v-1l7.5-.001V0h1zm42 0v7.5h7.5v1H92V16h-1V8.499l-7.5.001v-1l7.5-.001V0h1zm42 0v7.5h7.5v1H134V16h-1V8.499l-7.5.001v-1l7.5-.001V0h1zm42 0v7.5h7.5v1H176V16h-1V8.499l-7.5.001v-1l7.5-.001V0h1zm42 0v7.5h7.5v1H218V16h-1V8.499l-7.5.001v-1l7.5-.001V0h1zm42 0v7.5h7.5v1H260V16h-1V8.499l-7.5.001v-1l7.5-.001V0h1zM8.5 41v7.5H16v1H8.5V57h-1v-7.501L0 49.5v-1l7.5-.001V41h1zM50 41v7.5h7.5v1H50V57h-1v-7.501l-7.5.001v-1l7.5-.001V41h1zm42 0v7.5h7.5v1H92V57h-1v-7.501l-7.5.001v-1l7.5-.001V41h1zm42 0v7.5h7.5v1H134V57h-1v-7.501l-7.5.001v-1l7.5-.001V41h1zm42 0v7.5h7.5v1H176V57h-1v-7.501l-7.5.001v-1l7.5-.001V41h1zm42 0v7.5h7.5v1H218V57h-1v-7.501l-7.5.001v-1l7.5-.001V41h1zm42 0v7.5h7.5v1H260V57h-1v-7.501l-7.5.001v-1l7.5-.001V41h1zM8.5 82v7.5H16v1H8.5V98h-1v-7.501L0 90.5v-1l7.5-.001V82h1zM50 82v7.5h7.5v1H50V98h-1v-7.501l-7.5.001v-1l7.5-.001V82h1zm42 0v7.5h7.5v1H92V98h-1v-7.501l-7.5.001v-1l7.5-.001V82h1zm42 0v7.5h7.5v1H134V98h-1v-7.501l-7.5.001v-1l7.5-.001V82h1zm42 0v7.5h7.5v1H176V98h-1v-7.501l-7.5.001v-1l7.5-.001V82h1zm42 0v7.5h7.5v1H218V98h-1v-7.501l-7.5.001v-1l7.5-.001V82h1zm42 0v7.5h7.5v1H260V98h-1v-7.501l-7.5.001v-1l7.5-.001V82h1zM8.5 123v7.5H16v1H8.5v7.5h-1v-7.501L0 131.5v-1l7.5-.001V123h1zm41.5 0v7.5h7.5v1H50v7.5h-1v-7.501l-7.5.001v-1l7.5-.001V123h1zm42 0v7.5h7.5v1H92v7.5h-1v-7.501l-7.5.001v-1l7.5-.001V123h1zm42 0v7.5h7.5v1H134v7.5h-1v-7.501l-7.5.001v-1l7.5-.001V123h1zm42 0v7.5h7.5v1H176v7.5h-1v-7.501l-7.5.001v-1l7.5-.001V123h1zm42 0v7.5h7.5v1H218v7.5h-1v-7.501l-7.5.001v-1l7.5-.001V123h1zm42 0v7.5h7.5v1H260v7.5h-1v-7.501l-7.5.001v-1l7.5-.001V123h1zM8.5 164v7.5H16v1H8.5v7.5h-1v-7.501L0 172.5v-1l7.5-.001V164h1zm41.5 0v7.5h7.5v1H50v7.5h-1v-7.501l-7.5.001v-1l7.5-.001V164h1zm42 0v7.5h7.5v1H92v7.5h-1v-7.501l-7.5.001v-1l7.5-.001V164h1zm42 0v7.5h7.5v1H134v7.5h-1v-7.501l-7.5.001v-1l7.5-.001V164h1zm42 0v7.5h7.5v1H176v7.5h-1v-7.501l-7.5.001v-1l7.5-.001V164h1zm42 0v7.5h7.5v1H218v7.5h-1v-7.501l-7.5.001v-1l7.5-.001V164h1zm42 0v7.5h7.5v1H260v7.5h-1v-7.501l-7.5.001v-1l7.5-.001V164h1z" opacity=".177"/>
        <path fill="#D8D8D8" d="M8.5 205v7.5H16v1H8.5v7.5h-1v-7.501L0 213.5v-1l7.5-.001V205h1z"/>
        <path fill="#74CCE4" d="M50 205v7.5h7.5v1H50v7.5h-1v-7.501l-7.5.001v-1l7.5-.001V205h1z"/>
        <path fill="#D8D8D8" d="M92 205v7.5h7.5v1H92v7.5h-1v-7.501l-7.5.001v-1l7.5-.001V205h1zM134 205v7.5h7.5v1H134v7.5h-1v-7.501l-7.5.001v-1l7.5-.001V205h1zM176 205v7.5h7.5v1H176v7.5h-1v-7.501l-7.5.001v-1l7.5-.001V205h1zM218 205v7.5h7.5v1H218v7.5h-1v-7.501l-7.5.001v-1l7.5-.001V205h1z"/>
        <path fill="#CCDD47" d="M260 205v7.5h7.5v1H260v7.5h-1v-7.501l-7.5.001v-1l7.5-.001V205h1z"/>
        <path fill="#000" d="M8.5 246v7.5H16v1H8.5v7.5h-1v-7.501L0 254.5v-1l7.5-.001V246h1zm41.5 0v7.5h7.5v1H50v7.5h-1v-7.501l-7.5.001v-1l7.5-.001V246h1zm42 0v7.5h7.5v1H92v7.5h-1v-7.501l-7.5.001v-1l7.5-.001V246h1zm42 0v7.5h7.5v1H134v7.5h-1v-7.501l-7.5.001v-1l7.5-.001V246h1zm42 0v7.5h7.5v1H176v7.5h-1v-7.501l-7.5.001v-1l7.5-.001V246h1zm42 0v7.5h7.5v1H218v7.5h-1v-7.501l-7.5.001v-1l7.5-.001V246h1zm42 0v7.5h7.5v1H260v7.5h-1v-7.501l-7.5.001v-1l7.5-.001V246h1z" opacity=".177"/>
    </g>
</svg>
