<svg xmlns="http://www.w3.org/2000/svg" width="191" height="350" viewBox="0 0 191 350">
    <g fill="none" fill-rule="evenodd">
        <path fill="#D8D8D8" d="M179 0v10.018h10.019v1.336h-10.02l.001 10.02h-1.336v-10.02h-10.018V10.02l10.018-.001V0H179zM235.104 0v10.018h10.02v1.336h-10.02v10.02h-1.335l-.001-10.02H223.75V10.02l10.018-.001V0h1.336zM291.209 0v10.018h10.019v1.336h-10.02l.001 10.02h-1.336v-10.02h-10.019V10.02l10.018-.001L289.873 0h1.336z" transform="translate(-167)"/>
        <path fill="#74CCE4" d="M347.313 0v10.018h10.02v1.336h-10.02v10.02h-1.335l-.001-10.02h-10.018V10.02l10.018-.001V0h1.336z" transform="translate(-167)"/>
        <path fill="#000" d="M11.354 54.769v10.018h10.02v1.336h-10.02v10.019H10.02l-.001-10.02L0 66.124v-1.336h10.018V54.769h1.336zm55.437 0v10.018H76.81v1.336H66.79l.001 10.019h-1.336v-10.02l-10.018.001v-1.336h10.018V54.769h1.336zm56.105 0l-.001 10.018h10.02v1.336h-10.02v10.019h-1.335l-.001-10.02-10.018.001v-1.336h10.018V54.769h1.337zm56.104 0v10.018h10.019v1.336h-10.02L179 76.142h-1.336v-10.02l-10.018.001v-1.336h10.018V54.769H179zm56.104 0v10.018h10.02v1.336h-10.02v10.019h-1.335l-.001-10.02-10.018.001v-1.336h10.018V54.769h1.336zm56.105 0v10.018h10.019v1.336h-10.02l.001 10.019h-1.336v-10.02l-10.019.001v-1.336h10.018l.001-10.018h1.336zm56.104 0v10.018h10.02v1.336h-10.02v10.019h-1.335l-.001-10.02-10.018.001v-1.336h10.018V54.769h1.336z" opacity=".177" transform="translate(-167)"/>
        <path fill="#CCDD47" d="M179 109.537v10.018l10.019.001v1.336h-10.02L179 130.91h-1.336v-10.019h-10.018v-1.335h10.018v-10.019H179z" transform="translate(-167)"/>
        <path fill="#D8D8D8" d="M235.104 109.537v10.018l10.02.001v1.336h-10.02v10.018h-1.335l-.001-10.019H223.75v-1.335h10.018v-10.019h1.336z" transform="translate(-167)"/>
        <path fill="#74CCE4" d="M291.209 109.537v10.018l10.019.001v1.336h-10.02l.001 10.018h-1.336v-10.019h-10.019v-1.335h10.018l.001-10.019h1.336z" transform="translate(-167)"/>
        <path fill="#D8D8D8" d="M347.313 109.537v10.018l10.02.001v1.336h-10.02v10.018h-1.335l-.001-10.019h-10.018v-1.335h10.018v-10.019h1.336z" transform="translate(-167)"/>
        <path fill="#000" d="M11.354 164.306v10.018h10.02v1.336h-10.02v10.02H10.02l-.001-10.02H0v-1.335l10.018-.001v-10.018h1.336zm55.437 0v10.018H76.81v1.336H66.79l.001 10.02h-1.336v-10.02H55.437v-1.335l10.018-.001v-10.018h1.336zm56.105 0l-.001 10.018h10.02v1.336h-10.02v10.02h-1.335l-.001-10.02h-10.018v-1.335l10.018-.001v-10.018h1.337zm56.104 0v10.018h10.019v1.336h-10.02l.001 10.02h-1.336v-10.02h-10.018v-1.335l10.018-.001v-10.018H179zm56.104 0v10.018h10.02v1.336h-10.02v10.02h-1.335l-.001-10.02H223.75v-1.335l10.018-.001v-10.018h1.336zm56.105 0v10.018h10.019v1.336h-10.02l.001 10.02h-1.336v-10.02h-10.019v-1.335l10.018-.001.001-10.018h1.336zm56.104 0v10.018h10.02v1.336h-10.02v10.02h-1.335l-.001-10.02h-10.018v-1.335l10.018-.001v-10.018h1.336zM11.354 219.075v10.018h10.02v1.336h-10.02v10.019H10.02l-.001-10.02L0 230.43v-1.336h10.018v-10.018h1.336zm55.437 0v10.018H76.81v1.336H66.79l.001 10.019h-1.336v-10.02l-10.018.001v-1.336h10.018v-10.018h1.336zm56.105 0l-.001 10.018h10.02v1.336h-10.02v10.019h-1.335l-.001-10.02-10.018.001v-1.336h10.018v-10.018h1.337zm56.104 0v10.018h10.019v1.336h-10.02l.001 10.019h-1.336v-10.02l-10.018.001v-1.336h10.018v-10.018H179zm56.104 0v10.018h10.02v1.336h-10.02v10.019h-1.335l-.001-10.02-10.018.001v-1.336h10.018v-10.018h1.336zm56.105 0v10.018h10.019v1.336h-10.02l.001 10.019h-1.336v-10.02l-10.019.001v-1.336h10.018l.001-10.018h1.336zm56.104 0v10.018h10.02v1.336h-10.02v10.019h-1.335l-.001-10.02-10.018.001v-1.336h10.018v-10.018h1.336z" opacity=".177" transform="translate(-167)"/>
        <path fill="#D8D8D8" d="M179 273.843v10.018h10.019v1.337h-10.02l.001 10.018h-1.336v-10.019h-10.018v-1.335h10.018v-10.019H179zM235.104 273.843v10.018h10.02v1.337h-10.02v10.018h-1.335l-.001-10.019H223.75v-1.335h10.018v-10.019h1.336zM291.209 273.843v10.018h10.019v1.337h-10.02l.001 10.018h-1.336v-10.019h-10.019v-1.335h10.018l.001-10.019h1.336z" transform="translate(-167)"/>
        <path fill="#CCDD47" d="M347.313 273.843v10.018h10.02v1.337h-10.02v10.018h-1.335l-.001-10.019h-10.018v-1.335h10.018v-10.019h1.336z" transform="translate(-167)"/>
        <path fill="#000" d="M11.354 328.612v10.018h10.02v1.336h-10.02v10.02H10.02l-.001-10.02H0v-1.335l10.018-.001v-10.018h1.336zm55.437 0v10.018H76.81v1.336H66.79l.001 10.02h-1.336v-10.02H55.437v-1.335l10.018-.001v-10.018h1.336zm56.105 0l-.001 10.018h10.02v1.336h-10.02v10.02h-1.335l-.001-10.02h-10.018v-1.335l10.018-.001v-10.018h1.337zm56.104 0v10.018h10.019v1.336h-10.02l.001 10.02h-1.336v-10.02h-10.018v-1.335l10.018-.001v-10.018H179zm56.104 0v10.018h10.02v1.336h-10.02v10.02h-1.335l-.001-10.02H223.75v-1.335l10.018-.001v-10.018h1.336zm56.105 0v10.018h10.019v1.336h-10.02l.001 10.02h-1.336v-10.02h-10.019v-1.335l10.018-.001.001-10.018h1.336zm56.104 0v10.018h10.02v1.336h-10.02v10.02h-1.335l-.001-10.02h-10.018v-1.335l10.018-.001v-10.018h1.336z" opacity=".177" transform="translate(-167)"/>
    </g>
</svg>
