<svg xmlns="http://www.w3.org/2000/svg" xmlns:xlink="http://www.w3.org/1999/xlink" width="85" height="70" viewBox="0 0 85 70">
    <defs>
        <linearGradient id="prefix__b" x1="37.797%" x2="54.678%" y1="101.485%" y2=".055%">
            <stop offset="0%" stop-color="#CCDD47"/>
            <stop offset="99.974%" stop-color="#74CCE4"/>
        </linearGradient>
        <path id="prefix__a" d="M29.054.715c1.768 1.778 3.046 4.002 3.697 6.434.633 2.36.674 4.906 0 7.42-.673 2.513-1.982 4.697-3.71 6.425-1.787 1.788-4.017 3.078-6.448 3.731-.588.159-1.189-.03-1.584-.44-1.768-1.778-3.046-4.002-3.698-6.434-.632-2.36-.674-4.906 0-7.42.673-2.513 1.982-4.697 3.71-6.425C22.809 2.218 25.038.928 27.469.275c.589-.16 1.19.03 1.585.44zM15.832 28.029l-5.798 20.44 2.91-.035c.892-.01 1.624.705 1.634 1.597.002.196-.03.385-.093.56l-2.669 7.873 9.378-12.506h-3.006c-.893 0-1.616-.725-1.615-1.618 0-.296.08-.573.219-.811 2.413-4.322 8.645-17.18 11.867-20.013 1.557-1.368 3.482-2.359 5.658-2.794 2.174-.436 4.33-.264 6.288.398 2.015.68 3.823 1.879 5.234 3.466.394.42.55 1.038.354 1.623-.688 2.03-1.901 3.85-3.508 5.263-1.557 1.369-3.482 2.36-5.658 2.795-2.175.436-4.33.264-6.289-.398-1.351-.456-2.61-1.146-3.717-2.03l-6.078 10.886h3.482v.002c.337 0 .677.105.967.323.713.534.858 1.546.324 2.26L8.37 68.44c-.398.582-1.147.854-1.848.618-.845-.284-1.3-1.2-1.016-2.046l5.193-15.32-2.789.033v-.003c-.15.002-.303-.017-.454-.06-.858-.24-1.358-1.13-1.117-1.988l5.784-20.39c-1.312-.044-2.613-.297-3.85-.756-1.945-.722-3.731-1.947-5.146-3.654-1.412-1.705-2.283-3.685-2.63-5.73-.359-2.109-.156-4.284.587-6.29.206-.564.694-.942 1.246-1.035 2.11-.357 4.285-.153 6.29.591 1.946.722 3.732 1.947 5.147 3.654 1.412 1.705 2.283 3.685 2.63 5.73.355 2.09.16 4.244-.566 6.235zm26.941-1.957c-.921-.843-2.011-1.49-3.198-1.89-1.442-.487-3.028-.614-4.627-.293-1.598.32-3.01 1.045-4.15 2.047-.943.83-1.702 1.848-2.227 2.98.92.844 2.01 1.49 3.197 1.89 1.443.488 3.029.615 4.628.294 1.597-.32 3.01-1.045 4.149-2.047.944-.83 1.703-1.848 2.228-2.981zM7.51 15.438c-1.178-.438-2.435-.623-3.684-.548-.305 1.213-.357 2.481-.146 3.72.254 1.495.895 2.95 1.938 4.207 1.04 1.257 2.349 2.156 3.77 2.683 1.178.438 2.435.623 3.683.548.306-1.213.358-2.481.147-3.719-.254-1.496-.895-2.95-1.938-4.208-1.041-1.257-2.349-2.156-3.77-2.683zm22.127-7.461c-.422-1.577-1.19-3.045-2.242-4.295-1.535.557-2.935 1.444-4.09 2.599-1.329 1.33-2.34 3.024-2.866 4.988-.526 1.964-.498 3.937-.011 5.754.422 1.577 1.19 3.045 2.241 4.295 1.536-.557 2.935-1.444 4.09-2.599 1.33-1.33 2.34-3.024 2.867-4.988.526-1.964.498-3.937.011-5.754z"/>
    </defs>
    <g fill="none" fill-rule="evenodd">
        <path fill="#C3D72B" d="M46.89 58.736h-4.576V50.65c0-.708-.07-1.301-.221-1.783-.146-.483-.352-.87-.618-1.156-.261-.29-.578-.497-.95-.627-.366-.126-.768-.191-1.21-.191-.563 0-1.065.105-1.517.316-.452.211-.839.502-1.155.87-.321.366-.563.808-.728 1.32-.166.507-.251 1.065-.251 1.663v7.674h-4.546V43.462h3.661l.282 1.16c.311-.226.663-.437 1.044-.637.382-.201.784-.377 1.206-.523.422-.15.859-.266 1.3-.356.448-.086.905-.131 1.367-.131 1.216 0 2.26.176 3.134.522.87.352 1.587.85 2.145 1.502.562.653.974 1.447 1.235 2.38.267.935.397 1.99.397 3.165v8.192zm16.323-11.3l-1.914.014c-1.255 0-2.235.347-2.933 1.045-.703.698-1.055 1.748-1.055 3.15v7.091h-4.53V43.477h3.651l.352 1.442c.492-.412 1.085-.754 1.788-1.03.703-.276 1.527-.412 2.481-.412h2.16v3.958zm21.558-1.84h-1.296c-.256 0-.503.041-.739.116-.236.08-.457.171-.663.282.196.371.347.763.457 1.17.106.407.161.829.161 1.27 0 .794-.166 1.538-.502 2.236-.332.698-.809 1.3-1.427 1.808-.617.512-1.37.914-2.265 1.205-.894.297-1.898.442-3.013.442-1.05 0-2.005-.13-2.858-.396-.216.351-.312.698-.292 1.034 0 .216.056.387.176.508.116.125.261.216.442.28.176.066.367.106.573.121.206.015.397.02.572.02h2.798c1.215 0 2.25.126 3.109.382s1.562.598 2.11 1.025c.547.422.949.919 1.195 1.482.251.562.377 1.15.377 1.757 0 .93-.216 1.748-.648 2.447-.427.703-1.02 1.285-1.768 1.757-.749.473-1.633.824-2.647 1.065-1.01.241-2.1.362-3.265.362-1.07 0-2.09-.095-3.064-.286-.974-.191-1.833-.487-2.571-.884-.739-.397-1.331-.9-1.768-1.512-.442-.613-.663-1.341-.663-2.185 0-.522.17-1.055.512-1.602.341-.553.763-1.06 1.266-1.532-.357-.312-.623-.673-.804-1.08-.186-.407-.276-.849-.276-1.316 0-.648.165-1.27.502-1.878.336-.603.753-1.166 1.25-1.698-.456-.487-.808-1.035-1.044-1.638-.236-.602-.352-1.245-.352-1.918 0-.789.166-1.527.492-2.23.327-.704.804-1.316 1.422-1.844.618-.532 1.366-.949 2.245-1.26.884-.307 1.884-.462 3.004-.462.793 0 1.527.08 2.205.24.673.166 1.29.387 1.853.674.352-.277.769-.528 1.256-.754.487-.226 1.044-.341 1.682-.341h2.266v3.134zM72.048 58.948h-.251c-.176.226-.321.467-.442.723-.116.262-.176.538-.176.844 0 .367.106.673.317.92.21.24.502.436.873.582.372.146.81.251 1.311.311.498.056 1.04.086 1.618.086.597 0 1.13-.05 1.602-.146.472-.1.874-.23 1.205-.397.332-.165.588-.366.764-.602.176-.236.266-.493.266-.779 0-.291-.07-.537-.206-.733-.136-.196-.331-.357-.582-.477-.247-.126-.548-.211-.895-.267-.351-.055-.733-.08-1.155-.08l-4.249.015zm.698-10.563c0 .372.07.714.206 1.015.136.306.327.563.573.779.246.216.537.386.874.507.341.125.708.186 1.1.186.412 0 .783-.06 1.125-.176.336-.12.633-.286.879-.507.25-.221.447-.483.582-.789.136-.301.206-.643.206-1.015 0-.361-.07-.693-.206-.994-.135-.296-.331-.553-.582-.769-.246-.215-.543-.386-.88-.507-.34-.125-.712-.186-1.124-.186-.402 0-.774.06-1.105.176-.332.12-.623.286-.87.502-.245.216-.436.473-.572.779-.135.301-.206.638-.206 1z"/>
        <path fill="#979898" d="M51.771 38.221v.46h-3.55v-5.022h3.443v.46H48.75v1.785h2.597v.452H48.75v1.865h3.02zm1.705-4.863h.509v5.322h-.51v-5.322zm5.778 3.594h-3.156c.029.392.18.709.452.95.273.242.617.362 1.033.362.234 0 .45-.041.645-.125.197-.084.366-.207.51-.37l.287.33c-.168.201-.377.354-.628.46-.251.105-.527.157-.828.157-.388 0-.731-.082-1.03-.247-.299-.165-.532-.394-.7-.685-.167-.292-.25-.622-.25-.99s.08-.698.24-.99c.16-.292.38-.519.66-.681.28-.163.594-.244.943-.244.35 0 .663.081.94.244.277.162.495.388.653.677.157.29.236.62.236.994l-.007.158zm-1.822-1.636c-.363 0-.668.116-.914.348-.247.232-.386.535-.42.908h2.676c-.034-.373-.174-.676-.42-.908-.246-.232-.554-.348-.922-.348zm4.997 3.4c-.373 0-.706-.081-1-.244-.295-.162-.525-.39-.693-.685-.167-.294-.25-.625-.25-.993s.083-.698.25-.99c.168-.292.398-.519.693-.681.294-.163.627-.244 1-.244.325 0 .616.063.872.19s.458.312.606.556l-.38.258c-.125-.187-.283-.326-.474-.42-.191-.093-.4-.14-.624-.14-.272 0-.517.061-.735.183-.218.122-.387.296-.51.52-.121.225-.182.481-.182.768 0 .292.06.549.183.771.122.222.291.395.509.517.218.121.463.182.735.182.225 0 .433-.045.624-.136.191-.09.35-.23.474-.416l.38.258c-.148.244-.352.43-.61.556-.258.127-.548.19-.868.19zm5.069-.265c-.096.086-.214.152-.355.197-.141.046-.289.068-.442.068-.353 0-.626-.095-.817-.287-.192-.19-.287-.461-.287-.81v-2.281h-.674v-.43h.674v-.825h.509v.824h1.148v.43h-1.148v2.253c0 .225.056.396.169.513.112.117.273.176.484.176.105 0 .207-.017.305-.05.098-.034.183-.082.254-.144l.18.366zm1.977-2.805c.12-.253.297-.445.534-.574.237-.129.53-.193.879-.193v.495l-.122-.008c-.397 0-.708.122-.933.366-.225.244-.337.586-.337 1.026v1.922h-.51v-3.773h.489v.74zm2.895-.739h.509v3.773h-.51v-3.773zm.258-.824c-.105 0-.194-.036-.266-.108-.071-.072-.107-.158-.107-.258 0-.096.036-.18.107-.251.072-.072.16-.108.266-.108.105 0 .193.035.265.104.072.07.108.152.108.247 0 .106-.036.194-.108.266-.072.072-.16.108-.265.108zm3.799 4.633c-.373 0-.707-.081-1-.244-.295-.162-.526-.39-.693-.685-.168-.294-.251-.625-.251-.993s.083-.698.25-.99c.168-.292.4-.519.693-.681.294-.163.628-.244 1-.244.326 0 .616.063.872.19s.458.312.606.556l-.38.258c-.124-.187-.282-.326-.473-.42-.191-.093-.4-.14-.624-.14-.273 0-.518.061-.736.183-.217.122-.387.296-.509.52-.122.225-.183.481-.183.768 0 .292.061.549.183.771.122.222.292.395.51.517.217.121.462.182.735.182.225 0 .433-.045.624-.136.191-.09.349-.23.473-.416l.38.258c-.148.244-.351.43-.61.556-.257.127-.547.19-.867.19zm4.358-3.837c.493 0 .87.123 1.134.37.263.245.394.61.394 1.093v2.338h-.488v-.588c-.114.196-.283.35-.505.46-.223.11-.487.164-.793.164-.42 0-.756-.1-1.004-.301-.249-.2-.373-.466-.373-.796 0-.32.116-.579.348-.775.232-.196.601-.294 1.108-.294h1.198v-.23c0-.325-.091-.572-.273-.742-.182-.17-.447-.255-.796-.255-.24 0-.469.04-.689.119-.22.079-.409.188-.566.326l-.23-.38c.191-.163.42-.288.689-.377.268-.088.55-.132.846-.132zm-.18 3.436c.288 0 .534-.066.74-.198.205-.131.358-.321.459-.57v-.617H80.62c-.645 0-.968.225-.968.674 0 .22.084.394.25.52.168.127.403.19.704.19zm3.656-4.957h.51v5.322h-.51v-5.322z"/>
        <mask id="prefix__c" fill="#fff">
            <use xlink:href="#prefix__a"/>
        </mask>
        <path fill="url(#prefix__b)" d="M29.054.715c1.768 1.778 3.046 4.002 3.697 6.434.633 2.36.674 4.906 0 7.42-.673 2.513-1.982 4.697-3.71 6.425-1.787 1.788-4.017 3.078-6.448 3.731-.588.159-1.189-.03-1.584-.44-1.768-1.778-3.046-4.002-3.698-6.434-.632-2.36-.674-4.906 0-7.42.673-2.513 1.982-4.697 3.71-6.425C22.809 2.218 25.038.928 27.469.275c.589-.16 1.19.03 1.585.44zM15.832 28.029l-5.798 20.44 2.91-.035c.892-.01 1.624.705 1.634 1.597.002.196-.03.385-.093.56l-2.669 7.873 9.378-12.506h-3.006c-.893 0-1.616-.725-1.615-1.618 0-.296.08-.573.219-.811 2.413-4.322 8.645-17.18 11.867-20.013 1.557-1.368 3.482-2.359 5.658-2.794 2.174-.436 4.33-.264 6.288.398 2.015.68 3.823 1.879 5.234 3.466.394.42.55 1.038.354 1.623-.688 2.03-1.901 3.85-3.508 5.263-1.557 1.369-3.482 2.36-5.658 2.795-2.175.436-4.33.264-6.289-.398-1.351-.456-2.61-1.146-3.717-2.03l-6.078 10.886h3.482v.002c.337 0 .677.105.967.323.713.534.858 1.546.324 2.26L8.37 68.44c-.398.582-1.147.854-1.848.618-.845-.284-1.3-1.2-1.016-2.046l5.193-15.32-2.789.033v-.003c-.15.002-.303-.017-.454-.06-.858-.24-1.358-1.13-1.117-1.988l5.784-20.39c-1.312-.044-2.613-.297-3.85-.756-1.945-.722-3.731-1.947-5.146-3.654-1.412-1.705-2.283-3.685-2.63-5.73-.359-2.109-.156-4.284.587-6.29.206-.564.694-.942 1.246-1.035 2.11-.357 4.285-.153 6.29.591 1.946.722 3.732 1.947 5.147 3.654 1.412 1.705 2.283 3.685 2.63 5.73.355 2.09.16 4.244-.566 6.235zm26.941-1.957c-.921-.843-2.011-1.49-3.198-1.89-1.442-.487-3.028-.614-4.627-.293-1.598.32-3.01 1.045-4.15 2.047-.943.83-1.702 1.848-2.227 2.98.92.844 2.01 1.49 3.197 1.89 1.443.488 3.029.615 4.628.294 1.597-.32 3.01-1.045 4.149-2.047.944-.83 1.703-1.848 2.228-2.981zM7.51 15.438c-1.178-.438-2.435-.623-3.684-.548-.305 1.213-.357 2.481-.146 3.72.254 1.495.895 2.95 1.938 4.207 1.04 1.257 2.349 2.156 3.77 2.683 1.178.438 2.435.623 3.683.548.306-1.213.358-2.481.147-3.719-.254-1.496-.895-2.95-1.938-4.208-1.041-1.257-2.349-2.156-3.77-2.683zm22.127-7.461c-.422-1.577-1.19-3.045-2.242-4.295-1.535.557-2.935 1.444-4.09 2.599-1.329 1.33-2.34 3.024-2.866 4.988-.526 1.964-.498 3.937-.011 5.754.422 1.577 1.19 3.045 2.241 4.295 1.536-.557 2.935-1.444 4.09-2.599 1.33-1.33 2.34-3.024 2.867-4.988.526-1.964.498-3.937.011-5.754z" mask="url(#prefix__c)"/>
    </g>
</svg>
