<svg xmlns="http://www.w3.org/2000/svg" width="29" height="46" viewBox="0 0 29 46">
    <g fill="none">
        <path fill="#74CCE4" fill-opacity=".2" d="M6.158 30.589c0-6.49 4.67-11.908 10.825-13.075-.819-.155-1.65-.233-2.483-.233-7.338 0-13.308 5.97-13.308 13.308S7.162 43.897 14.5 43.897c.833 0 1.664-.078 2.483-.233C10.827 42.498 6.158 37.08 6.158 30.59z"/>
        <g fill="#CCDD47">
            <path d="M14.5 0C8.415.007 3.483 4.939 3.476 11.024v10.157C1.23 23.8-.004 27.138 0 30.589c0 7.995 6.505 14.5 14.5 14.5S29 38.584 29 30.589c.003-3.45-1.23-6.788-3.476-9.408V11.024C25.517 4.939 20.585.007 14.5 0zm0 1.192c5.428.006 9.826 4.404 9.832 9.832v8.919c-.558-.516-1.156-.988-1.787-1.41v-7.509c0-4.443-3.602-8.045-8.045-8.045s-8.045 3.602-8.045 8.045v7.507c-.631.423-1.229.895-1.787 1.41v-8.917c.006-5.428 4.404-9.826 9.832-9.832zm6.853 16.621c-4.28-2.299-9.427-2.299-13.706 0v-6.789c0-3.785 3.068-6.853 6.853-6.853 3.785 0 6.853 3.068 6.853 6.853v6.79zM14.5 43.897c-7.338 0-13.308-5.97-13.308-13.308S7.162 17.281 14.5 17.281s13.308 5.97 13.308 13.308-5.97 13.308-13.308 13.308z"/>
            <path d="M16.559 40.594c-.678.138-1.368.208-2.059.207-.329 0-.596.267-.596.596 0 .33.267.596.596.596.772 0 1.541-.077 2.298-.231.211-.04.385-.19.454-.395.07-.203.023-.428-.12-.588-.144-.16-.362-.231-.573-.185zM18.57 39.959c-.201.081-.341.265-.367.48-.027.214.066.426.24.554.175.127.406.15.602.058 4.166-1.81 6.86-5.92 6.86-10.462 0-.329-.267-.596-.597-.596-.329 0-.596.267-.596.596.001 4.068-2.412 7.748-6.142 9.37zM15.096 19.78c0-.329-.267-.595-.596-.595-.694 0-1.387.062-2.07.187-.213.034-.392.181-.466.384-.074.204-.032.431.11.594.14.164.36.238.571.194.612-.111 1.233-.168 1.855-.167.329 0 .596-.267.596-.596zM10.06 20.081c-4.224 1.782-6.97 5.923-6.964 10.508 0 .329.266.596.596.596.329 0 .596-.267.596-.596-.005-4.106 2.453-7.815 6.237-9.41.298-.132.435-.478.308-.778-.126-.3-.47-.442-.772-.32z"/>
        </g>
        <path fill="#74CCE4" d="M18.051 27.636l-4.643 4.643-2.46-2.46c-.15-.153-.37-.213-.577-.158-.207.055-.368.217-.423.423-.055.207.006.428.158.578l2.88 2.88c.233.233.61.233.844 0l5.064-5.064c.226-.234.223-.605-.007-.835-.23-.23-.602-.233-.836-.007z"/>
    </g>
</svg>
