<svg xmlns="http://www.w3.org/2000/svg" width="44" height="51" viewBox="0 0 44 51">
    <g fill="none">
        <path fill="#74CCE4" fill-opacity=".2" d="M23.827 23.577c.234.175.554.177.79.005 2.09-1.516 4.207-2.43 6.19-2.682-.37-.05-.741-.074-1.114-.074-2.065 0-4.321.777-6.567 2.253.233.16.468.323.7.498zM8.456 28.14c.425-2.235 1.407-4.11 2.84-5.42 1.136-1.041 2.564-1.706 4.092-1.904-.37-.048-.743-.073-1.116-.074-1.984 0-3.781.684-5.197 1.978-1.434 1.31-2.417 3.184-2.841 5.42-1.324 6.901 2.98 16.1 15.579 21.107.062.022.127.036.193.044.063-.008.126-.022.187-.043.305-.124.609-.252.911-.386C11.225 43.78 7.165 34.869 8.456 28.141z"/>
        <g fill="#CCDD47">
            <path d="M16.674 31.16c.01.005.023.01.035.013.404.157.853.157 1.257 0l.04-.015c13.32-5.396 17.84-15.24 16.41-22.602v-.005C33.387 3.453 29.702.16 25.027.16c-2.447 0-5.095.942-7.684 2.73C14.72 1.021 12.118.075 9.606.075c-4.701 0-8.37 3.33-9.348 8.481C-1.17 16 3.352 25.875 16.674 31.161zM1.567 8.808c.425-2.236 1.407-4.11 2.841-5.42 1.416-1.294 3.214-1.978 5.197-1.978 2.345 0 4.812.954 7.334 2.835.234.174.554.177.79.005 2.485-1.803 5.008-2.756 7.298-2.756 1.922-.023 3.78.681 5.206 1.97 1.436 1.297 2.43 3.147 2.875 5.35 1.836 9.464-6.5 17.414-15.582 21.101-.06.02-.123.036-.187.044-.065-.008-.13-.023-.193-.045C4.547 24.907.243 15.708 1.567 8.807z" transform="translate(4.667 19.333)"/>
            <path d="M9.22 22.891c.152.179.303.356.447.533.234.285.654.327.938.093.285-.233.327-.653.093-.938-.15-.182-.306-.367-.463-.552-.376-.423-.726-.868-1.05-1.333-.129-.2-.356-.317-.596-.304-.238.012-.452.153-.56.366-.107.214-.091.47.041.668.353.512.736 1.002 1.15 1.467zM7.923 18.283c-.018-.026-1.827-2.624-1.811-5.888.001-.368-.296-.668-.664-.67-.368-.001-.668.296-.67.664-.017 3.705 1.973 6.546 2.058 6.666.214.297.629.366.927.154.3-.212.371-.627.16-.926z" transform="translate(4.667 19.333)"/>
        </g>
        <path fill="#74CCE4" d="M28.502 7.877c.079-.242.014-.506-.168-.683L25.653 4.58 26.286.89c.043-.25-.06-.503-.266-.652-.205-.15-.477-.17-.702-.05l-3.313 1.74L18.69.188c-.224-.118-.497-.098-.702.051-.206.15-.308.402-.265.653l.632 3.689-2.68 2.614c-.182.177-.248.441-.17.683.08.241.288.417.54.454l3.704.538 1.657 3.357c.112.228.344.372.598.372s.485-.144.597-.372L24.26 8.87l3.705-.539c.251-.036.46-.212.538-.453zM23.721 7.6c-.218.032-.405.168-.502.364l-1.214 2.46-1.215-2.46c-.096-.197-.284-.333-.501-.365l-2.716-.394 1.965-1.914c.157-.153.229-.374.192-.59l-.464-2.704 2.428 1.276c.194.102.427.102.62 0l2.43-1.276L24.28 4.7c-.038.216.034.437.191.59l1.965 1.914-2.715.395zM10.213 10.513l.633-3.69c.042-.25-.06-.503-.265-.652-.206-.149-.478-.168-.703-.05L6.565 7.863 3.25 6.12c-.225-.118-.497-.098-.702.051-.205.15-.308.402-.265.652l.633 3.69-2.681 2.613c-.182.177-.247.442-.17.683.08.242.288.418.539.454l3.705.54 1.657 3.356c.112.227.344.371.598.371s.485-.144.598-.371l1.656-3.357 3.705-.539c.252-.036.46-.212.539-.454.078-.24.013-.506-.17-.683l-2.68-2.613zm-1.932 3.02c-.217.031-.405.168-.502.365l-1.214 2.46-1.214-2.46c-.098-.197-.285-.334-.502-.365l-2.715-.395 1.965-1.914c.156-.154.228-.375.19-.59l-.463-2.705 2.428 1.277c.195.102.427.102.621 0l2.428-1.277-.464 2.704c-.036.216.035.437.192.59l1.965 1.915-2.715.395zM33.429 6.171c-.205.15-.308.402-.265.652l.632 3.69-2.68 2.613c-.182.177-.248.442-.169.683.079.242.287.418.538.454l3.705.539 1.657 3.357c.112.227.344.371.598.371s.486-.144.598-.371l1.656-3.357 3.706-.539c.25-.036.46-.212.538-.454.078-.24.013-.506-.169-.683l-2.681-2.613.633-3.69c.043-.25-.06-.503-.265-.652-.205-.149-.477-.168-.702-.05l-3.314 1.742L34.13 6.12c-.225-.118-.497-.098-.702.051zm3.705 3.034c.195.103.427.103.62 0l2.43-1.276-.465 2.704c-.037.216.035.437.192.59l1.965 1.915-2.716.395c-.217.031-.405.168-.502.364l-1.214 2.46-1.214-2.46c-.097-.196-.284-.333-.501-.364l-2.716-.395 1.965-1.914c.157-.154.229-.375.192-.59l-.464-2.705 2.428 1.276z"/>
    </g>
</svg>
