<svg xmlns="http://www.w3.org/2000/svg" width="50" height="30" viewBox="0 0 50 30">
    <g fill="none">
        <path fill="#74CCE4" fill-opacity=".2" d="M15.288 12.936l5.176-7.91c.759-1.158 2.31-1.482 3.468-.725l22.8 14.919 1.389-.973L22.855 1.714c-1.158-.756-2.71-.432-3.468.725l-5.177 7.91c-.755 1.155-.435 2.704.718 3.463.063-.312.185-.61.36-.876z"/>
        <g>
            <path fill="#CCDD47" d="M1.293 14.01l8.268 10.86c.16.213.436.304.692.23l8.768-2.505 2.852 1.867c.3.195.7.111.895-.187l2.101-3.211.98.641c.3.196.7.112.896-.187l1.46-2.231-1.082-.708-1.106 1.69-8.046-5.265 1.106-1.69-1.083-.708-1.46 2.231c-.195.3-.111.7.188.895l.98.642-2.101 3.211c-.196.299-.112.7.187.895l1.801 1.18-7.268 2.076-9.028-11.86V3.007c0-.357-.29-.647-.646-.647-.357 0-.647.29-.647.647V21.27c0 .357.29.646.647.646.357 0 .646-.29.646-.646v-7.26zm17.492 3.071l5.003 3.274-1.748 2.67-5.003-3.273 1.748-2.67z" transform="translate(0 3.987)"/>
            <path fill="#74CCE4" d="M42.392 24.465L38.165 21.7l-.708 1.082 4.768 3.12c.298.195.7.11.894-.188l3.783-5.781c.195-.299.111-.7-.187-.895l-2.434-1.593-.708 1.082 1.894 1.239-3.075 4.699zM21.218.375l-.387.592c-.127.194-.141.44-.037.646.104.207.31.342.541.355.231.012.451-.1.577-.293l.389-.592c.194-.299.11-.7-.188-.894-.299-.196-.699-.112-.895.186zM24.159 2.299l-.388.592c-.127.194-.14.44-.037.647.104.206.31.34.542.354.23.013.45-.099.577-.293l.388-.592c.196-.3.112-.7-.187-.895-.299-.196-.7-.112-.895.187zM27.1 4.223l-.388.592c-.127.194-.141.44-.037.647.104.206.31.341.541.354.231.013.451-.099.578-.293l.387-.592c.195-.299.112-.699-.187-.894-.298-.196-.699-.112-.894.186zM30.04 6.147l-.388.593c-.127.193-.14.44-.036.646.103.206.31.341.54.354.232.013.452-.099.578-.292l.388-.593c.195-.299.111-.699-.187-.894-.299-.195-.699-.112-.895.186zM32.98 8.071l-.387.593c-.196.298-.112.7.187.895.299.195.7.112.895-.187l.388-.593c.195-.298.11-.699-.188-.894-.299-.195-.699-.112-.895.186zM35.921 9.995l-.388.593c-.195.299-.112.7.187.895.299.195.7.112.895-.187l.388-.593c.196-.299.112-.7-.187-.895-.299-.195-.7-.111-.895.187zM38.66 13.407c.3.195.7.112.895-.187l.389-.592c.195-.3.111-.7-.188-.896-.299-.196-.7-.111-.895.188l-.388.592c-.195.3-.111.7.188.895zM41.601 15.331c.299.196.7.112.895-.187l.388-.592c.195-.3.112-.7-.187-.895-.299-.196-.7-.112-.895.187l-.388.592c-.195.299-.112.7.187.895z" transform="translate(0 3.987)"/>
        </g>
        <path fill="#CCDD47" d="M49.628 17.688L23.562.632c-1.755-1.146-4.107-.654-5.257 1.099l-5.177 7.91c-1.148 1.756-.656 4.11 1.1 5.258l20.79 13.605c.222.145.509.14.725-.011l13.902-9.734c.176-.123.279-.325.276-.54-.004-.214-.113-.413-.293-.53zM35.36 27.183L14.935 13.818c-1.158-.758-1.482-2.31-.725-3.468l5.177-7.91c.758-1.157 2.31-1.482 3.468-.726L48.12 18.247l-12.76 8.936z"/>
    </g>
</svg>
