<svg xmlns="http://www.w3.org/2000/svg" width="50" height="43" viewBox="0 0 50 43">
    <g fill="none">
        <path fill="#74CCE4" fill-opacity=".2" d="M15.786 23.63v-9.922l10.125-5.009-.962-.472-10.177 4.984v9.727c0 2.183 1.525 5.066 3.33 6.297l.329.224c-1.492-1.441-2.645-3.902-2.645-5.828z"/>
        <path fill="#CCDD47" d="M44.346 15.17c-.113-.172-.304-.275-.51-.275-.204 0-.396.103-.508.275l-5.453 8.314c-.123.187-.133.426-.027.623.106.197.312.32.536.32h4.651c-.64 4.64-2.962 8.885-6.522 11.93-3.366 2.886-7.593 4.541-11.6 4.541-2.612 0-5.343-.704-7.899-2.036-2.653-1.386-4.955-3.36-6.729-5.772-.198-.271-.579-.33-.85-.132-.271.2-.33.58-.132.851 1.884 2.562 4.33 4.66 7.149 6.132 2.728 1.422 5.654 2.174 8.462 2.174 4.292 0 8.808-1.762 12.39-4.834 3.831-3.276 6.31-7.856 6.959-12.855h5.027c.224 0 .43-.122.536-.319.106-.197.096-.436-.027-.623l-5.453-8.314zm-4.836 8.04l4.327-6.597 4.326 6.596H39.51zM5.553 27.021c.112.172.304.275.509.275.205 0 .396-.103.509-.275l5.453-8.315c.122-.187.133-.426.026-.622-.106-.197-.311-.32-.535-.32H6.863c.641-4.64 2.962-8.886 6.523-11.93 3.365-2.887 7.593-4.542 11.599-4.542 2.612 0 5.344.705 7.9 2.037 2.653 1.386 4.955 3.36 6.728 5.772.199.271.58.33.85.131.272-.198.33-.58.132-.85-1.884-2.563-4.329-4.66-7.148-6.132C30.72.827 27.792.075 24.985.075c-4.292 0-8.809 1.762-12.391 4.834-3.83 3.276-6.31 7.857-6.958 12.855H.609c-.224 0-.43.123-.536.32-.106.196-.096.435.027.622l5.453 8.315zm4.835-8.04l-4.326 6.597-4.327-6.597h8.653z"/>
        <g fill="#74CCE4">
            <path d="M22.855 16.042V5.95c0-.232-.132-.444-.34-.546L11.73.106c-.17-.083-.367-.083-.536 0L.407 5.388c-.209.103-.341.315-.341.547v10.107c0 2.618 1.696 5.826 3.861 7.302l7.19 4.904c.207.141.48.141.686 0l7.191-4.904c2.165-1.476 3.861-4.684 3.861-7.302zM11.46 27.008l-6.847-4.67c-1.805-1.23-3.33-4.114-3.33-6.297V6.315L11.46 1.33l10.178 5v9.712c0 2.22-1.494 5.045-3.33 6.296l-6.848 4.67z" transform="translate(13.489 6.897)"/>
            <path d="M15.6 10.898l-5.445 5.316-2.833-2.766c-.242-.23-.623-.222-.855.016-.233.238-.23.62.005.855L9.73 17.5c.236.232.613.232.85 0l5.87-5.73c.158-.15.223-.375.17-.588-.053-.213-.217-.38-.428-.439-.211-.058-.438.002-.593.157z" transform="translate(13.489 6.897)"/>
        </g>
    </g>
</svg>
