<svg xmlns="http://www.w3.org/2000/svg" width="30" height="30" viewBox="0 0 30 30">
    <g fill="none" fill-rule="evenodd">
        <circle cx="15" cy="15" r="15" fill="#FFF" fill-rule="nonzero"/>
        <path fill="#139BD0" d="M15.491 18.585c-.577.562-1.15 1.116-1.717 1.673-.199.196-.422.304-.706.289-.195-.01-.303-.096-.363-.28-.435-1.35-.876-2.695-1.308-4.045-.042-.131-.104-.195-.237-.236-1.024-.313-2.046-.633-3.066-.957-.157-.05-.315-.115-.451-.208-.21-.142-.24-.373-.052-.54.173-.154.38-.288.596-.373 1.252-.496 2.51-.976 3.766-1.46l9.566-3.692c.606-.235 1.072.095 1.009.751-.04.42-.149.832-.237 1.246-.692 3.269-1.385 6.538-2.081 9.807-.165.776-.71.978-1.349.507-1.07-.788-2.138-1.579-3.207-2.369-.051-.037-.104-.072-.163-.113zm-2.4.992l.035-.01c.007-.03.017-.06.02-.09.068-.741.14-1.482.2-2.224.014-.166.07-.283.195-.394.986-.882 1.966-1.77 2.948-2.655 1.087-.98 2.174-1.96 3.257-2.944.067-.06.095-.164.141-.248-.102-.01-.211-.052-.304-.028-.126.033-.246.106-.359.177-2.399 1.511-4.796 3.025-7.196 4.533-.136.085-.161.158-.11.307.177.508.338 1.021.505 1.533l.667 2.043z"/>
    </g>
</svg>
