<svg xmlns="http://www.w3.org/2000/svg" width="30" height="30" viewBox="0 0 30 30">
    <g fill="none" fill-rule="evenodd">
        <circle cx="15" cy="15" r="15" fill="#FFF"/>
        <g fill-rule="nonzero">
            <path fill="#834995" d="M13.285 1.534c-.391-.36-1.972-1.507-5.498-1.523 0 0-4.156-.249-6.18 1.61C.48 2.745.082 4.397.04 6.443c-.043 2.046-.095 5.88 3.6 6.919h.003L3.64 14.95s-.025.643.4.773c.51.16.812-.33 1.301-.856.268-.289.637-.713.917-1.036 2.529.212 4.47-.274 4.692-.345.51-.166 3.399-.535 3.867-4.369.486-3.956-.234-6.454-1.532-7.583z" transform="translate(7.8 7.8)"/>
            <path fill="#FFF" d="M13.712 8.828c-.397 3.2-2.738 3.403-3.169 3.541-.184.059-1.892.483-4.036.345 0 0-1.6 1.929-2.098 2.43-.163.163-.341.148-.338-.175l.012-2.637c-.003 0-.003 0 0 0-3.132-.867-2.947-4.131-2.914-5.839.034-1.707.357-3.107 1.311-4.048C4.194.89 7.722 1.122 7.722 1.122c2.981.012 4.409.91 4.741 1.212 1.098.941 1.658 3.193 1.25 6.494z" transform="translate(7.8 7.8)"/>
            <path fill="#834995" d="M9.436 6.343c.012.264-.385.283-.397.018-.034-.677-.35-1.006-1.003-1.043-.264-.015-.24-.412.022-.397.858.046 1.335.539 1.378 1.421z" transform="translate(7.8 7.8)"/>
            <path fill="#834995" d="M10.06 6.69c.031-1.304-.784-2.326-2.332-2.44-.261-.018-.233-.415.028-.396 1.785.129 2.735 1.356 2.701 2.845-.003.265-.403.253-.397-.009z" transform="translate(7.8 7.8)"/>
            <path fill="#834995" d="M11.506 7.102c.003.265-.397.268-.397.003-.018-2.507-1.688-3.873-3.716-3.888-.261-.003-.261-.397 0-.397 2.267.015 4.092 1.581 4.113 4.282zM11.159 10.12v.007c-.333.584-.954 1.23-1.594 1.024l-.006-.01c-.65-.18-2.178-.968-3.144-1.737-.499-.394-.954-.859-1.305-1.305-.316-.397-.636-.867-.947-1.433-.655-1.185-.8-1.714-.8-1.714-.206-.64.437-1.261 1.024-1.594h.007c.283-.147.553-.098.735.12 0 0 .381.456.544.68.154.21.36.545.468.732.188.336.07.677-.114.819l-.369.295c-.188.15-.163.43-.163.43s.548 2.071 2.593 2.594c0 0 .28.025.431-.163l.295-.369c.142-.185.483-.302.819-.114.452.255 1.027.652 1.409 1.012.215.176.264.443.117.726z" transform="translate(7.8 7.8)"/>
        </g>
    </g>
</svg>
